HIERARCHY
ROOT Hips
{
	OFFSET -3.958830 18.904000 13.208200
	CHANNELS 6 Xposition Yposition Zposition Zrotation Yrotation Xrotation 
	JOINT LHipJoint
	{
		OFFSET 0.000000 0.000000 0.000000
		CHANNELS 3 Zrotation Yrotation Xrotation
		JOINT LeftUpLeg
		{
			OFFSET 1.800000 -1.400000 0.085000
			CHANNELS 3 Zrotation Yrotation Xrotation
			JOINT LeftLeg
			{
				OFFSET 2.215000 -6.000000 0.000000
				CHANNELS 3 Zrotation Yrotation Xrotation
				JOINT LeftFoot
				{
					OFFSET 2.500000 -6.900000 0.000000
					CHANNELS 3 Zrotation Yrotation Xrotation
					JOINT LeftToeBase
					{
						OFFSET 0.200000 -0.500000 1.950000
						CHANNELS 3 Zrotation Yrotation Xrotation
						End Site
						{
							OFFSET 0.000000 0.000000 0.000000
						}
					}
				}
			}
		}
	}
	JOINT RHipJoint
	{
		OFFSET 0.000000 0.000000 0.000000
		CHANNELS 3 Zrotation Yrotation Xrotation
		JOINT RightUpLeg
		{
			OFFSET -1.800000 -1.400000 0.085000
			CHANNELS 3 Zrotation Yrotation Xrotation
			JOINT RightLeg
			{
				OFFSET -2.215000 -6.000000 0.000000
				CHANNELS 3 Zrotation Yrotation Xrotation
				JOINT RightFoot
				{
					OFFSET -2.500000 -6.900000 0.000000
					CHANNELS 3 Zrotation Yrotation Xrotation
					JOINT RightToeBase
					{
						OFFSET -0.200000 -0.500000 1.950000
						CHANNELS 3 Zrotation Yrotation Xrotation
						End Site
						{
							OFFSET 0.000000 0.000000 0.000000
						}
					}
				}
			}
		}
	}
	JOINT LowerBack
	{
		OFFSET 0.000000 0.000000 0.000000
		CHANNELS 3 Zrotation Yrotation Xrotation
		JOINT Spine
		{
			OFFSET -0.087000 1.940000 -0.288900
			CHANNELS 3 Zrotation Yrotation Xrotation
			JOINT Spine1
			{
				OFFSET 0.000000 1.950000 0.060000
				CHANNELS 3 Zrotation Yrotation Xrotation
				JOINT Neck
				{
					OFFSET 0.000000 0.000000 0.000000
					CHANNELS 3 Zrotation Yrotation Xrotation
					JOINT Neck1
					{
						OFFSET 0.000000 1.600000 0.340000
						CHANNELS 3 Zrotation Yrotation Xrotation
						JOINT Head
						{
							OFFSET 0.000000 1.667000 -0.240000
							CHANNELS 3 Zrotation Yrotation Xrotation
							End Site
							{
								OFFSET 0.000000 0.000000 0.000000
							}
						}
					}
				}
				JOINT LeftShoulder
				{
					OFFSET 0.000000 0.000000 0.000000
					CHANNELS 3 Zrotation Yrotation Xrotation
					JOINT LeftArm
					{
						OFFSET 2.700000 1.550000 -0.730000
						CHANNELS 3 Zrotation Yrotation Xrotation
						JOINT LeftForeArm
						{
							OFFSET 5.450000 0.000000 0.000000
							CHANNELS 3 Zrotation Yrotation Xrotation
							JOINT LeftHand
							{
								OFFSET 3.450000 0.000000 0.000000
								CHANNELS 3 Zrotation Yrotation Xrotation
								JOINT LeftHandIndex1
								{
									OFFSET 0.750000 0.000000 0.000000
									CHANNELS 3 Zrotation Yrotation Xrotation
									End Site
									{
										OFFSET 0.000000 0.000000 0.000000
									}
								}
							}
						}
					}
				}
				JOINT RightShoulder
				{
					OFFSET 0.000000 0.000000 0.000000
					CHANNELS 3 Zrotation Yrotation Xrotation
					JOINT RightArm
					{
						OFFSET -2.700000 1.550000 -0.730000
						CHANNELS 3 Zrotation Yrotation Xrotation
						JOINT RightForeArm
						{
							OFFSET -5.450000 0.000000 0.000000
							CHANNELS 3 Zrotation Yrotation Xrotation
							JOINT RightHand
							{
								OFFSET -3.450000 0.000000 0.000000
								CHANNELS 3 Zrotation Yrotation Xrotation
								JOINT RightHandIndex1
								{
									OFFSET -0.750000 0.000000 0.000000
									CHANNELS 3 Zrotation Yrotation Xrotation
									End Site
									{
										OFFSET 0.000000 0.000000 0.000000
									}
								}
							}
						}
					}
				}
			}
		}
	}
}
MOTION
Frames: 7
Frame Time: 0.016667
-1.323540 16.303230 -2.649940 -2.256732 -14.100397 -9.838129 -15.193395 13.581302 2.803231 7.720646 -0.546960 -0.882059 -9.924319 13.542924 35.678174 0.920245 8.093384 1.783929 0.216930 0.165950 0.103460 18.147512 -10.350442 3.690429 -1.056437 5.350788 -25.332683 16.312534 -5.731130 15.467150 -0.098844 -2.977113 3.250948 0.092390 -0.012540 0.064650 -3.144032 -1.965996 -8.198728 5.046135 -2.314121 24.075114 -3.086672 -0.527071 5.448934 3.451985 2.489042 -10.750747 1.987091 -7.083189 39.680282 2.937170 -8.372440 -5.689460 -8.549668 -8.271106 4.465477 7.786618 10.867830 -1.864995 35.867543 -12.451212 -2.373299 -3.788664 3.172482 0.126620 -0.056470 0.061460 0.087590 1.907227 8.839058 5.540034 -17.077926 -5.728624 -2.873146 -42.633771 33.008581 -8.985055 2.473680 -1.575109 0.034630 0.059690 -0.065260 0.004560 
-1.362810 16.296430 -2.576860 -2.790986 -15.028780 -8.353856 -15.209717 13.573706 2.772208 8.258459 -0.678876 -1.555439 -9.762966 13.472062 35.660273 0.911329 8.046260 1.793801 0.184640 0.119930 0.097600 18.135645 -10.312915 3.764946 0.472192 5.540025 -25.354301 15.876408 -5.169446 13.466181 -0.056633 -2.710694 3.357226 0.057710 -0.019770 0.068290 -3.081155 -1.939212 -8.239018 5.077373 -1.785192 23.215128 -2.051909 -0.004252 3.612121 3.342499 3.641697 -10.999009 4.116024 -8.389103 38.589390 3.022300 -8.765120 -5.179170 -8.685276 -7.237164 4.473057 8.409307 14.412498 -1.091907 34.666924 -11.672833 -1.787404 -3.814645 3.180637 0.129490 -0.054860 0.058560 0.073080 2.120731 7.062723 5.826831 -16.885240 -10.348537 -1.742607 -41.053919 27.087966 -6.625190 2.566169 -1.610919 0.032680 0.036920 -0.057880 -0.003680 
-1.400060 16.295140 -2.514650 -3.194176 -15.796090 -6.998851 -15.225452 13.538056 2.742778 8.490406 -0.821647 -2.247039 -9.620065 13.355806 35.619843 0.898976 7.986208 1.806544 0.159490 0.085100 0.093450 18.127361 -10.287574 3.828686 1.599106 5.703438 -25.405531 15.804737 -4.832396 12.000101 -0.033767 -2.563295 3.414429 0.030830 -0.022930 0.081060 -3.030516 -1.858017 -8.255649 4.924643 -1.221711 22.592212 -1.342567 0.553585 1.840011 3.268768 4.998879 -11.129129 6.681031 -9.874538 36.977734 3.209450 -9.251160 -4.956050 -9.160289 -6.390078 4.360380 9.374582 17.764969 -0.301685 34.407607 -12.113412 -1.572398 -3.838930 3.200444 0.126210 -0.047250 0.056970 0.059850 2.583028 5.321393 6.054176 -16.181760 -14.505037 -0.814820 -39.149310 21.544579 -4.545258 2.641424 -1.631070 0.036570 0.013670 -0.050140 -0.008280 
-1.424020 16.293170 -2.457930 -3.620595 -16.553701 -5.882327 -15.237197 13.551725 2.698350 8.421542 -0.872402 -2.602281 -8.919806 12.937807 35.482338 0.860915 7.844917 1.846979 0.147810 0.070490 0.094380 18.119458 -10.272695 3.880264 2.523476 5.825013 -25.370164 15.597037 -4.558414 10.884514 -0.015470 -2.453623 3.457773 0.019830 -0.023820 0.094910 -2.984328 -1.842897 -8.251346 5.096364 -0.829293 22.191872 -0.806223 1.021573 0.269376 3.329952 5.907358 -11.084469 8.434520 -10.841485 35.452981 3.006820 -9.352900 -4.981110 -9.881216 -5.388168 4.092875 9.944706 20.111409 0.323801 34.502363 -11.573894 -1.268845 -3.879099 3.214951 0.119360 -0.034690 0.055340 0.050790 3.064512 3.783213 6.145431 -15.467614 -17.658724 -0.093812 -37.182501 17.012481 -2.958020 2.687379 -1.639617 0.041080 -0.002590 -0.045040 -0.012570 
-1.444710 16.302680 -2.412560 -3.889278 -17.076552 -5.102459 -15.246137 13.593086 2.661151 8.198373 -0.888577 -2.688724 -8.090376 12.430828 35.248892 0.820004 7.678488 1.899440 0.141920 0.061800 0.104780 18.110080 -10.273473 3.908409 3.275561 5.806855 -25.100400 15.192422 -4.309173 9.920133 -0.000895 -2.356319 3.493877 0.014180 -0.030450 0.101820 -2.939624 -1.872998 -8.243014 5.215038 -0.609993 21.815158 -0.469394 1.310141 -1.015515 3.444081 6.436961 -10.984330 9.420019 -11.447847 34.634081 2.496310 -9.283070 -4.922110 -10.715488 -4.449364 3.802663 10.121157 21.590733 0.709772 35.092684 -10.158190 -0.880645 -3.919870 3.216433 0.114520 -0.027910 0.056290 0.041270 3.620875 2.543855 6.200497 -14.697315 -20.218343 0.446554 -35.456916 13.733477 -1.870559 2.719842 -1.639025 0.043170 -0.013130 -0.044550 -0.019320 
-1.466680 16.317460 -2.385450 -3.836893 -17.227381 -4.497005 -15.257843 13.639978 2.637163 7.821537 -0.921868 -2.869045 -7.303449 11.919207 34.998486 0.790296 7.508359 1.957969 0.130080 0.042960 0.107310 18.096953 -10.277486 3.919452 3.878882 5.678593 -24.842750 14.462339 -3.997486 8.826512 0.023270 -2.237801 3.540435 0.000850 -0.031550 0.108300 -2.888893 -1.934537 -8.235639 4.930129 -0.504686 21.363491 -0.112636 1.372001 -1.963651 3.459715 6.660832 -10.923388 9.769913 -11.727930 34.409228 1.992830 -9.235330 -4.269290 -11.402560 -3.746675 3.655549 9.852639 22.705799 0.871958 35.828552 -8.479376 -0.466146 -3.953954 3.220055 0.104580 -0.019980 0.051960 0.035900 4.295178 1.668026 6.232122 -13.932176 -22.687756 0.813293 -34.906773 12.309809 -1.382929 2.745101 -1.646841 0.046280 -0.027310 -0.044010 -0.021410 
-1.484550 16.324980 -2.354870 -3.992338 -17.259457 -3.615421 -15.262553 13.667845 2.594685 7.439665 -0.948661 -3.201019 -6.349146 11.330347 34.731469 0.751408 7.320547 2.032120 0.099850 0.007980 0.084120 18.095496 -10.274364 3.956119 4.665974 5.628804 -24.689226 13.707207 -3.591024 7.248769 0.064074 -2.109237 3.601942 -0.014960 -0.007460 0.107610 -2.871608 -1.953131 -8.228001 5.078703 -0.313945 20.700272 0.323080 1.601381 -2.840059 3.365148 6.695857 -10.802915 9.774922 -12.255157 33.555378 1.487130 -9.667010 -3.350730 -11.632633 -2.785993 3.360411 9.580077 23.326692 1.100774 35.490224 -8.338742 -0.306674 -3.987913 3.219259 0.080930 0.001890 0.026750 0.034880 4.691888 0.700555 6.322315 -12.963835 -25.348618 1.222916 -33.668036 11.675307 -1.032904 2.758745 -1.654520 0.038500 -0.028220 -0.031590 -0.014880 
